<svg xmlns="http://www.w3.org/2000/svg" viewBox="0 0 200 60" width="200" height="60">
  <defs>
    <style>
      .signature-path {
        fill: none;
        stroke: #1a365d;
        stroke-width: 2;
        stroke-linecap: round;
        stroke-linejoin: round;
      }
    </style>
  </defs>
  <!-- Stylized signature "S. Wattana" -->
  <path class="signature-path" d="M10,35 Q15,20 25,22 Q35,24 32,35 Q28,48 18,45 Q8,42 15,38 Q22,34 35,40"/>
  <path class="signature-path" d="M40,42 L42,42"/>
  <path class="signature-path" d="M50,25 Q48,35 50,45 M50,32 Q60,28 65,35 Q70,42 65,48"/>
  <path class="signature-path" d="M72,30 Q74,38 72,46 M72,35 Q80,30 85,36"/>
  <path class="signature-path" d="M90,28 Q88,38 90,48 M90,35 Q95,28 100,35 Q105,42 100,48"/>
  <path class="signature-path" d="M108,28 Q106,38 108,48 M108,35 Q115,28 120,35 Q125,42 120,48"/>
  <path class="signature-path" d="M128,30 Q130,38 128,46 M128,35 Q136,30 140,36"/>
  <path class="signature-path" d="M148,30 Q146,40 150,48 Q155,40 152,32 Q148,38 155,48"/>
  <!-- Underline flourish -->
  <path class="signature-path" d="M8,52 Q60,58 180,48" stroke-width="1.5"/>
</svg>
